<?xml version="1.0" encoding="UTF-8"?>
<!DOCTYPE svg PUBLIC "-//W3C//DTD SVG 1.1//EN" "http://www.w3.org/Graphics/SVG/1.1/DTD/svg11.dtd">
<svg xmlns="http://www.w3.org/2000/svg" version="1.1" width="500px" height="500px" style="shape-rendering:geometricPrecision; text-rendering:geometricPrecision; image-rendering:optimizeQuality; fill-rule:evenodd; clip-rule:evenodd" xmlns:xlink="http://www.w3.org/1999/xlink">
<g><path style="opacity:0.999" fill="#4586f4" d="M 322.5,103.5 C 332.833,117.5 343.167,131.5 353.5,145.5C 284.166,145.333 214.833,145.5 145.5,146C 126.622,147.871 113.788,157.705 107,175.5C 105.274,181.037 104.274,186.704 104,192.5C 103.5,207.83 103.333,223.163 103.5,238.5C 89.8333,238.5 76.1667,238.5 62.5,238.5C 62.5,219.167 62.5,199.833 62.5,180.5C 66.2098,146.294 83.8765,122.461 115.5,109C 122.011,106.719 128.678,105.052 135.5,104C 149.167,103.667 162.833,103.333 176.5,103C 186.833,89.3333 197.167,75.6667 207.5,62C 235.5,61.3333 263.5,61.3333 291.5,62C 302.05,75.7105 312.384,89.5439 322.5,103.5 Z"/></g>
<g><path style="opacity:1" fill="#fbbd13" d="M 322.5,103.5 C 336.171,103.333 349.837,103.5 363.5,104C 402.128,110.961 426.294,133.461 436,171.5C 437.433,204.474 437.933,237.474 437.5,270.5C 423.5,270.5 409.5,270.5 395.5,270.5C 395.667,244.498 395.5,218.498 395,192.5C 394.18,173.013 385.347,158.513 368.5,149C 363.489,147.292 358.489,146.126 353.5,145.5C 343.167,131.5 332.833,117.5 322.5,103.5 Z"/></g>
<g><path style="opacity:0.501" fill="#a1c2f8" d="M 62.5,180.5 C 62.5,199.833 62.5,219.167 62.5,238.5C 76.1667,238.5 89.8333,238.5 103.5,238.5C 89.6766,239.496 75.6766,239.829 61.5,239.5C 61.1696,219.66 61.5029,199.993 62.5,180.5 Z"/></g>
<g><path style="opacity:1" fill="#4786f4" d="M 309.5,251.5 C 309.41,254.152 310.076,256.485 311.5,258.5C 315.262,299.223 297.262,324.056 257.5,333C 223.22,334.95 200.387,319.784 189,287.5C 182.036,251.927 194.869,226.427 227.5,211C 260.459,201.578 286.292,211.078 305,239.5C 306.791,243.411 308.291,247.411 309.5,251.5 Z"/></g>
<g><path style="opacity:0.502" fill="#b2cafa" d="M 309.5,251.5 C 310.924,253.515 311.59,255.848 311.5,258.5C 310.076,256.485 309.41,254.152 309.5,251.5 Z"/></g>
<g><path style="opacity:1" fill="#eb4839" d="M 61.5,301.5 C 75.5,301.5 89.5,301.5 103.5,301.5C 103.333,317.17 103.5,332.837 104,348.5C 105.017,371.731 116.517,386.898 138.5,394C 175.518,394.198 212.518,394.698 249.5,395.5C 249.5,409.5 249.5,423.5 249.5,437.5C 212.498,437.667 175.498,437.5 138.5,437C 103.251,431.794 79.0845,412.627 66,379.5C 63.8746,373.332 62.5413,366.999 62,360.5C 61.5,340.836 61.3334,321.169 61.5,301.5 Z"/></g>
<g><path style="opacity:0.661" fill="#9ad3a8" d="M 383.5,333.5 C 376.465,333.326 369.465,333.659 362.5,334.5C 366.203,332.945 370.203,332.278 374.5,332.5C 377.686,332.502 380.686,332.835 383.5,333.5 Z"/></g>
<g><path style="opacity:1" fill="#3aa956" d="M 383.5,333.5 C 400.392,337.891 411.225,348.557 416,365.5C 418.816,391.314 407.983,408.147 383.5,416C 356.904,418.731 340.07,407.231 333,381.5C 330.488,357.886 340.321,342.219 362.5,334.5C 369.465,333.659 376.465,333.326 383.5,333.5 Z"/></g>
</svg>
